
<svg xmlns="http://www.w3.org/2000/svg" xmlns:xlink="http://www.w3.org/1999/xlink" width="18" height="18" viewBox="0 0 18 18">    <defs>        <path id="a" d="M12.274 14.407a7.834 7.834 0 0 1-4.399 1.343A7.88 7.88 0 0 1 0 7.875 7.88 7.88 0 0 1 7.875 0a7.88 7.88 0 0 1 7.875 7.875 7.84 7.84 0 0 1-1.328 4.375l2.379 2.377a1.524 1.524 0 0 1-2.153 2.153l-2.374-2.373zM7.875 2.787a5.09 5.09 0 0 1 5.088 5.088 5.09 5.09 0 0 1-5.088 5.088 5.09 5.09 0 0 1-5.088-5.088 5.09 5.09 0 0 1 5.088-5.088z"/>    </defs>    <g fill="none" fill-rule="evenodd">        <path d="M0 0h18v18H0z"/>        <mask id="b" fill="#fff">            <use xlink:href="#a"/>        </mask>        <g fill="#C7C7C7" mask="url(#b)">            <path d="M-3.375-3.375H20.25V20.25H-3.375z"/>        </g>    </g></svg>