<svg xmlns="http://www.w3.org/2000/svg" xmlns:xlink="http://www.w3.org/1999/xlink" width="16" height="16" viewBox="0 0 16 16">
  <defs>
      <path id="a" d="M10.91 12.806A6.964 6.964 0 0 1 7 14c-3.863 0-7-3.137-7-7s3.137-7 7-7 7 3.137 7 7a6.97 6.97 0 0 1-1.18 3.889l2.114 2.113a1.354 1.354 0 0 1-1.914 1.914l-2.11-2.11zM7 2.477A4.524 4.524 0 0 1 11.523 7 4.524 4.524 0 0 1 7 11.523 4.524 4.524 0 0 1 2.477 7 4.524 4.524 0 0 1 7 2.477z"></path>
  </defs>
  <g fill="none" fill-rule="evenodd">
      <path d="M0 0h16v16H0z"></path>
      <mask id="b" fill="#fff">
          <use xlink:href="#a"></use>
      </mask>
      <g fill="#C7C7C7" mask="url(#b)" class="fill-path">
          <path d="M-3-3h21v21H-3z"></path>
      </g>
  </g>
</svg>