<?xml version="1.0" encoding="UTF-8"?> <!-- Generator: Adobe Illustrator 23.0.1, SVG Export Plug-In . SVG Version: 6.00 Build 0) --> <svg xmlns="http://www.w3.org/2000/svg" xmlns:xlink="http://www.w3.org/1999/xlink" id="Слой_1" x="0px" y="0px" viewBox="0 0 669.6 183" style="enable-background:new 0 0 669.6 183;" xml:space="preserve"> <g> <path style="fill:#333333;" d="M339,57.2l-18.9,0.1l0-12.1l51.6-0.1l0,12.1l-18.8,0.1l0.1,52.6l-13.9,0L339,57.2z M363.6,109.7 l25-64.7h17.3l24.9,64.7h-15.7l-4-11h-27.8l-4.1,11H363.6z M387.2,86.6h20.2l-10.1-27.9L387.2,86.6z M526.3,86h17.1v7.8 c-2.6,2.4-8.1,4.9-13.8,4.9c-11.7,0-20.3-9-20.3-21.3c0-12.2,8.5-21.3,20.3-21.3c6.9,0,12.4,3.9,15.3,8.4l11.5-6.2 c-4.9-7.7-13.3-14.5-26.8-14.5c-18.9,0-34.4,13-34.4,33.5c0,20.4,15.5,33.6,34.4,33.6c11.7,0,21-4.9,27.6-12.2V73.9h-30.9V86z M617.8,45v12.1h18.9v52.6h13.9V57.1h18.8V45H617.8z M475.1,85.1l15.9,24.6h-15.8l-14.1-23h-11.5v23h-13.8V45h30.3 c13.5,0,21.7,8.8,21.7,20.9C487.9,77.3,482.1,83.4,475.1,85.1z M473.8,65.9c0-5.4-4.2-8.7-9.7-8.7h-14.5v17.5h14.5 C469.6,74.6,473.8,71.3,473.8,65.9z M566.2,109.7H612V97.6h-32V82.9h28.6V70.8H580V57.1h32V45h-45.8V109.7z M431.9,139.3 c-7.1,0-12.8,6.3-12.8,14.1s5.7,14.1,12.8,14.1c7.1,0,12.8-6.3,12.8-14.1S439,139.3,431.9,139.3z M398,146.3c0-3.8-2.9-6.4-6.8-6.4 h-9.3v12.9h9.3C395.2,152.7,398,150.1,398,146.3z M353.8,139.8h-9.3v12.9h9.3c4,0,6.8-2.6,6.8-6.4S357.8,139.8,353.8,139.8z M465.4,140.2v26.5c0,11.6-5,16.6-16.6,16.6h-112c-11.6,0-16.6-5-16.6-16.6v-26.5c0-11.6,5-16.6,16.6-16.6h112 C460.4,123.6,465.3,128.6,465.4,140.2z M366.2,146.3c0-6-4.2-11.2-11.7-11.2h-12.4c-0.3,0-0.5,0-0.6,0c-1.4,0.1-2.5,1.4-2.3,2.9 v31.3c0,1.6,1.2,2.8,2.8,2.8c1.5-0.1,2.7-1.3,2.7-2.8v-11.7h9.9C362.1,157.6,366.2,152.4,366.2,146.3z M403.8,169.4 c0-0.6-0.2-1.2-0.6-1.7l-7.8-10.9c4.4-0.9,8.2-4.5,8.2-10.6c0-6.7-4.8-11.2-11.8-11.2h-12.4c-0.3,0-0.5,0-0.6,0 c-1.4,0.1-2.5,1.4-2.3,2.9v31.3c0,1.6,1.2,2.8,2.8,2.8c1.5-0.1,2.7-1.3,2.7-2.8v-11.7h7.8l9.2,13.3c0.6,0.7,1.4,1.1,2.3,1.1 C402.6,172,403.7,170.8,403.8,169.4z M450.4,153.4c0-10.9-7.5-18.9-18.5-18.9c-10.9,0-18.5,8.1-18.5,18.9 c0,10.9,7.5,18.9,18.5,18.9C442.9,172.3,450.4,164.3,450.4,153.4z"></path> <path style="fill:#FA2C38;" d="M313.8,31.4L298.2,47c-2.9,3-6.8,4.5-10.9,4.4h-11.1l-25.1,24.9c0.9,3.6,0.8,7.4-0.3,10.9 c-3.2,10.5-14.4,16.3-24.9,13.1S209.7,85.8,213,75.4s14.4-16.3,24.9-13.1l24.7-24.4V26.9c-0.1-4.1,1.5-8,4.4-10.9l15.8-15.8 c0,0,4.7-2.7,4.7,2.6v18.6v0.2c0,3.3,0.8,4.9,4.6,5.1h19.3C316.6,26.7,313.8,31.5,313.8,31.4z M294.8,69.7 c5.2,27.6-8.2,55.2-32.8,68.5c-31.4,16.7-70.2,4.9-87-26.4c0,0-0.7-1.4-0.9-1.8c-1.5-2.6-3.4-3.4-6.1-2.8c-1.1,0.4-3.4,1.3-4,1.6 c-4.5,2-8.7,4.6-12.5,7.8l-0.1,1.4c-3.1,27-4.9,56.7-16.4,62.4c-1.9,0.9-3.8,1.4-5.8,1.5c-3.2,0.2-6.4-1.1-9.6-3 c-13.6-8-20.1-20-19.2-32.2c1-13.5,11.4-26.6,31.5-39.6c0.2-3,0.5-5.9,0.6-8.6c-1.3,3.1-3.3,5.8-5.8,8.2 c-6.7,6.2-15.3,5.9-21.2-1.4c-1.7-2.2-5-6.1-6.3-10.6c-4.1,6.7-7.5,10-10.4,11.2c-2.1,1.7-4.6,2.7-7.2,3 c-8.7,0.6-13.2-4.6-14.1-9.4c-1.1-5.4-0.6-17.4-0.6-18.6c0-1.7-2-2-2.8-1.9c-2.6,0.4-3.9,3.2-4.6,4.9c-3.1,6.8-4.1,12.4-7.6,19 c-2.3,4.5-7.7,6.3-12.3,4.5c-2.2-0.7-4-2.4-4.9-4.5c-0.8-2.1-1.6-6.6-1-13.1c0.3-3.4,0.5-6.4,0.6-9.7c0-1.1-0.8-1.9-1.9-1.9 c-1.3,0-2.5,0.7-3.2,1.9c-1.7,3.1-3.2,7.3-4.9,10.9c-1.4,3.1-3.9,9.6-5.2,12.4c-1.1,2.8-3.4,4.9-6.3,5.8c-5.8,1.9-10.9-1.6-11.5-8 c-0.5-5.7-0.5-8.9-0.6-14.7C0.4,79,0.2,73.7,0.3,66.3c0.2-6.9,1.9-21,14.8-19.7c5.3,0.6,4.8,7,4.8,9.6c0,0.6,0.1,5.6,0.2,7.8 c0,0.1,0,0.2,0,0.3c0.1,0.7,0.8,1.2,1.6,1.1c1.1-0.2,2.1-1.4,3-2.6c0.9-1.6,1.4-2.4,3-5.4c2.1-4.1,3.2-6,5.7-9.9 c1.4-2.5,3.9-4.3,6.7-4.8c4.5-0.7,9.7,1.9,10.3,7c0.2,1.8,0.4,4.2,0.4,5.3c0.1,4.6-0.1,3.8,0,8.4c0,0.9,0.1,2.4,1.1,2.8 c1,0.4,2-0.9,2.6-1.6c3.5-4.1,7.1-9.6,11.7-14.5c2.6-2.9,5.3-5.8,10-5.8c7.3,0,10.6,4.5,10,10.1c-0.9,9.4-2,22.4-1.9,29.4 c0,0.9-0.3,2.9,0.6,3.4c1.6,1.1,8.3-5.1,11.6-10.9c0.2-0.4,0.3-0.6,0.5-0.9c0-4.1-0.1-8.8,0.2-12.9c0.3-5.2,1.1-10.5,3.5-15.1 c2.4-4.6,6.2-6.6,10.9-6.1c6.9,0.6,10.8,5.2,9.9,12.9c-0.7,6.2-3.5,6.7-4.1,10.6c-0.7,5.5-1.2,11.8,0.4,17.2 c1.3,4.5,4.9,5.4,8.1,3.3s5.7-7.3,7-11.5c1.6-5.3,3-13.8,4.3-19.3c0.7-3.4,1.6-6.9,3.8-9.6c2.4-3.2,6.6-4.4,10.2-2.9 c0.3,0.2,0.6,0.3,0.9,0.5h0.1c0.6,0.3,1.1,0.6,1.7,1c1.6,0.8,2.8,2.1,3.6,3.7c0.7,1.6,1.1,3.3,1.2,5.1c0.4,4.3-2.2,9.8-4.3,19.5 c-0.1,0.8-0.2,1.7-0.3,2.5c-0.6,6.7-0.6,9.7-0.9,16.5c0,0,0,0.5,0,1c6.5-3.3,13.5-5.6,20.8-6.8c1.9-0.3,3.8-0.4,5.8-0.2 c4.1,0.5,7.3,3.4,8.3,7.3c2.3,9.7,7.9,18.5,15.7,24.8c8,6.5,17.9,10,28.2,9.9c2.8,0,5.7-0.3,8.4-0.8c24.5-4.7,40.5-28.4,35.8-52.8 c-1-5.2,2.4-10.2,7.6-11.2S293.9,64.4,294.8,69.7z M130.3,129.9c-8.1,7.4-9.4,12.4-9.6,14.5c-0.4,3.6,1.2,7.1,4.2,9.4 c1.2,0.9,2.4,0.6,2.8-0.6C129.2,147.8,130.1,135.2,130.3,129.9z M179,64.2c4.6,2.5,10.5,0.7,13-3.9c9.6-17.6,29.6-26.9,49.2-22.6 c5.2,1,10.3-2.3,11.3-7.5c1-5.1-2.2-10.1-7.2-11.2c-27.9-6-56.5,7.1-70.1,32.3C172.6,55.9,174.4,61.7,179,64.2z"></path> </g> </svg> 